<?xml version="1.0" standalone="no"?>
<!DOCTYPE svg PUBLIC "-//W3C//DTD SVG 20010904//EN"
 "http://www.w3.org/TR/2001/REC-SVG-20010904/DTD/svg10.dtd">
<svg version="1.0" xmlns="http://www.w3.org/2000/svg"
 width="566.000000pt" height="566.000000pt" viewBox="0 0 566.000000 566.000000"
 preserveAspectRatio="xMidYMid meet">
<metadata>
Created by potrace 1.11, written by Peter Selinger 2001-2013
</metadata>
<g transform="translate(0.000000,566.000000) scale(0.100000,-0.100000)"
fill="#000000" stroke="none">
<path d="M1469 5008 c-56 -79 -363 -507 -682 -953 -319 -445 -583 -815 -588
-821 -6 -7 314 -238 971 -700 l980 -689 0 -667 0 -667 53 -5 c28 -3 223 -8
432 -11 209 -3 491 -8 626 -12 l246 -6 7 429 c3 236 9 545 13 687 l6 259 958
-4 959 -3 0 611 c0 336 -3 767 -7 959 l-6 348 -945 -8 -944 -7 -26 24 c-15 14
-445 319 -957 678 -511 359 -944 664 -962 677 l-31 24 -103 -143z m2061 -2208
l0 -950 -686 0 c-449 0 -685 3 -682 10 4 12 1360 1890 1365 1890 2 0 3 -427 3
-950z"/>
<path d="M2813 2705 c-24 -17 -34 -68 -21 -108 10 -28 35 -47 62 -47 19 0 46
27 46 46 0 19 -20 18 -35 -3 -7 -9 -19 -14 -29 -10 -22 9 -22 80 0 98 15 12
19 11 32 -9 18 -27 32 -28 32 -3 0 20 -34 51 -55 51 -6 0 -20 -7 -32 -15z"/>
<path d="M3408 2586 c-27 -14 -37 -46 -14 -46 9 0 16 5 16 10 0 6 11 10 25 10
16 0 25 -6 25 -15 0 -9 -9 -15 -23 -15 -47 0 -75 -44 -51 -78 12 -17 24 -21
65 -19 l51 2 -7 65 c-4 36 -11 70 -16 76 -15 19 -45 23 -71 10z m50 -103 c-4
-22 -48 -31 -48 -10 0 19 10 27 32 27 13 0 18 -6 16 -17z"/>
<path d="M2858 2015 c-1 -47 -2 -93 -2 -102 -1 -27 69 -41 94 -18 27 25 34 67
16 109 -14 33 -28 41 -63 37 -8 -1 -13 10 -13 29 0 20 -5 30 -15 30 -12 0 -15
-17 -17 -85z m85 -55 c0 -36 -15 -55 -37 -47 -20 8 -23 93 -3 100 20 7 40 -19
40 -53z"/>
</g>
</svg>
